<?xml version="1.0" encoding="UTF-8"?>
<svg width="47px" height="80px" viewBox="0 0 47 80" version="1.1" xmlns="http://www.w3.org/2000/svg" xmlns:xlink="http://www.w3.org/1999/xlink">
    <!-- Generator: Sketch 48.2 (47327) - http://www.bohemiancoding.com/sketch -->
    <title>application-icon</title>
    <desc>Created with Sketch.</desc>
    <defs></defs>
    <g id="v2" stroke="none" stroke-width="1" fill="none" fill-rule="evenodd" transform="translate(-621.000000, -410.000000)">
        <g id="Group-19" transform="translate(-7.000000, 0.000000)" fill-rule="nonzero">
            <g id="Group-18" transform="translate(421.000000, 252.000000)">
                <g id="Group-21" transform="translate(0.000000, 137.000000)">
                    <g id="Group-16" transform="translate(160.000000, 0.000000)">
                        <g id="Group-13" transform="translate(27.000000, 21.000000)">
                            <g id="application-icon" transform="translate(20.000000, 0.000000)">
                                <path d="M42.1041667,0 L4.89583333,0 C2.203125,0 0,2.19512195 0,4.87804878 L0,75.1219512 C0,77.804878 2.203125,80 4.89583333,80 L42.1041667,80 C44.796875,80 47,77.804878 47,75.1219512 L47,4.87804878 C47,2.19512195 44.796875,0 42.1041667,0 Z M46.0208333,75.1219512 C46.0208333,77.2682927 44.2583333,79.0243902 42.1041667,79.0243902 L4.89583333,79.0243902 C2.74166667,79.0243902 0.979166667,77.2682927 0.979166667,75.1219512 L0.979166667,4.87804878 C0.979166667,2.73170732 2.74166667,0.975609756 4.89583333,0.975609756 L42.1041667,0.975609756 C44.2583333,0.975609756 46.0208333,2.73170732 46.0208333,4.87804878 L46.0208333,75.1219512 Z" id="Shape" fill="#FFFFFF"></path>
                                <path d="M24,72 C22.3448276,72 21,73.3448276 21,75 C21,76.6551724 22.3448276,78 24,78 C25.6551724,78 27,76.6551724 27,75 C27,73.3448276 25.6551724,72 24,72 Z M24,76.9655172 C22.9137931,76.9655172 22.0344828,76.0862069 22.0344828,75 C22.0344828,73.9137931 22.9137931,73.0344828 24,73.0344828 C25.0862069,73.0344828 25.9655172,73.9137931 25.9655172,75 C25.9655172,76.0862069 25.0862069,76.9655172 24,76.9655172 Z" id="Shape" fill="#FFFFFF"></path>
                                <path d="M18.2411348,4 L29.7588652,4 C30.4539007,4 31,3.56 31,3 C31,2.44 30.4539007,2 29.7588652,2 L18.2411348,2 C17.5460993,2 17,2.44 17,3 C17,3.56 17.5460993,4 18.2411348,4 Z M18.2411348,2.8 L29.7588652,2.8 C29.9078014,2.8 30.0070922,2.88 30.0070922,3 C30.0070922,3.12 29.9078014,3.2 29.7588652,3.2 L18.2411348,3.2 C18.0921986,3.2 17.9929078,3.12 17.9929078,3 C17.9929078,2.88 18.0921986,2.8 18.2411348,2.8 Z" id="Shape" fill="#FFFFFF"></path>
                                <path d="M23,39.4878049 C23,39.7804878 23.1939394,39.9756098 23.4848485,39.9756098 L38.5151515,39.9756098 C38.8060606,39.9756098 39,39.7804878 39,39.4878049 C39,39.195122 38.8060606,39 38.5151515,39 L23.4848485,39 C23.1939394,39 23,39.195122 23,39.4878049 Z" id="Shape" fill="#FFFFFF"></path>
                                <path d="M38.5151515,42 L23.4848485,42 C23.1939394,42 23,42.195122 23,42.4878049 C23,42.7804878 23.1939394,42.9756098 23.4848485,42.9756098 L38.5151515,42.9756098 C38.8060606,42.9756098 39,42.7804878 39,42.4878049 C39,42.195122 38.8060606,42 38.5151515,42 Z" id="Shape" fill="#FFFFFF"></path>
                                <path d="M38.5151515,45 L23.4848485,45 C23.1939394,45 23,45.195122 23,45.4878049 C23,45.7804878 23.1939394,45.9756098 23.4848485,45.9756098 L38.5151515,45.9756098 C38.8060606,45.9756098 39,45.7804878 39,45.4878049 C39,45.195122 38.8060606,45 38.5151515,45 Z" id="Shape" fill="#FFFFFF"></path>
                                <polygon id="Shape" points="9 71 20 71 20 63 9 63"></polygon>
                                <path d="M42.9029126,6 L3.09708738,6 L3.09708738,25.5678092 C3.09708738,25.6646796 3,25.7615499 3,25.8584203 C3,25.9552906 3.09708738,26.1005961 3.09708738,26.1490313 L3.09708738,70.9031297 L8.67961165,70.9031297 C8.72815534,70.9031297 8.82524272,71 8.9223301,71 C9.01941748,71 9.06796117,70.9031297 9.16504854,70.9031297 L18.3883495,70.9031297 C18.4368932,70.9031297 18.5339806,71 18.631068,71 C18.7281553,71 18.776699,70.9031297 18.8737864,70.9031297 L42.9029126,70.9031297 L42.9029126,26.1490313 C42.9029126,26.052161 43,25.9552906 43,25.8584203 C43,25.7615499 42.9029126,25.6162444 42.9029126,25.5678092 L42.9029126,6 Z M18.1456311,69.9344262 L9.40776699,69.9344262 L9.40776699,63.6378539 L18.1456311,63.6378539 L18.1456311,69.9344262 Z M41.9320388,69.9344262 L19.1165049,69.9344262 L19.1165049,62.6691505 L8.4368932,62.6691505 L8.4368932,69.9344262 L4.06796117,69.9344262 L4.06796117,26.342772 L16.1553398,26.342772 C16.3980583,30.023845 19.4563107,32.8815201 23.1941748,32.8815201 C26.9320388,32.8815201 29.9902913,29.9754098 30.2330097,26.342772 L41.8834951,26.342772 L41.8834951,69.9344262 L41.9320388,69.9344262 Z M29.3106796,25.9068554 C29.3106796,27.2630402 28.8252427,28.4739195 28.0970874,29.4910581 C27.5631068,27.9411326 26.3009709,26.7786885 24.7961165,26.2943368 C25.3786408,25.8099851 25.7669903,25.1318927 25.7669903,24.3084948 C25.7669903,22.9038748 24.6504854,21.7898659 23.2427184,21.7898659 C21.8349515,21.7898659 20.7184466,22.9038748 20.7184466,24.3084948 C20.7184466,25.0834575 21.1067961,25.8099851 21.6893204,26.2943368 C20.1359223,26.7786885 18.9223301,27.9895678 18.3883495,29.4910581 C17.6601942,28.5223547 17.223301,27.3599106 17.1747573,26.052161 C17.1747573,26.0037258 17.1747573,25.9552906 17.1747573,25.8584203 C17.1747573,25.7615499 17.1747573,25.7131148 17.1262136,25.6646796 C17.223301,22.3710879 19.9417476,19.7555887 23.2427184,19.7555887 C26.592233,19.7555887 29.3106796,22.4679583 29.3592233,25.8099851 C29.3592233,25.8099851 29.3592233,25.8584203 29.3592233,25.8584203 C29.3106796,25.8584203 29.3106796,25.9068554 29.3106796,25.9068554 Z M23.1941748,27.0208644 C25.184466,27.0208644 26.8834951,28.4254844 27.2718447,30.314456 C26.2038835,31.2831595 24.7475728,31.9128167 23.1941748,31.9128167 C21.6407767,31.9128167 20.184466,31.2831595 19.1165049,30.314456 C19.5048544,28.4254844 21.2524272,27.0208644 23.1941748,27.0208644 Z M21.6893204,24.35693 C21.6893204,23.4850969 22.368932,22.8070045 23.2427184,22.8070045 C24.1165049,22.8070045 24.7961165,23.4850969 24.7961165,24.35693 C24.7961165,25.228763 24.1165049,25.9068554 23.2427184,25.9068554 C22.368932,25.9068554 21.6893204,25.1803279 21.6893204,24.35693 Z M41.9320388,25.3740686 L30.2815534,25.3740686 C30.038835,21.6929955 26.9805825,18.7868852 23.2427184,18.7868852 C19.5048544,18.7868852 16.4466019,21.6929955 16.2038835,25.3740686 L4.06796117,25.3740686 L4.06796117,6.96870343 L41.9320388,6.96870343 L41.9320388,25.3740686 Z" id="Shape" fill="#FFFFFF"></path>
                                <polygon id="Shape" points="9 48 20 48 20 38 9 38"></polygon>
                                <polygon id="Shape" points="9 60 20 60 20 50 9 50"></polygon>
                                <path d="M9,48 L20,48 L20,38 L9,38 L9,48 Z M10,39 L19,39 L19,47 L10,47 L10,39 Z" id="Shape" fill="#FFFFFF"></path>
                                <path d="M38.5151515,51 L23.4848485,51 C23.1939394,51 23,51.195122 23,51.4878049 C23,51.7804878 23.1939394,51.9756098 23.4848485,51.9756098 L38.5151515,51.9756098 C38.8060606,51.9756098 39,51.7804878 39,51.4878049 C39,51.195122 38.8060606,51 38.5151515,51 Z" id="Shape" fill="#FFFFFF"></path>
                                <path d="M38.5151515,55 L23.4848485,55 C23.1939394,55 23,55.195122 23,55.4878049 C23,55.7804878 23.1939394,55.9756098 23.4848485,55.9756098 L38.5151515,55.9756098 C38.8060606,55.9756098 39,55.7804878 39,55.4878049 C39,55.195122 38.8060606,55 38.5151515,55 Z" id="Shape" fill="#FFFFFF"></path>
                                <path d="M38.5151515,58 L23.4848485,58 C23.1939394,58 23,58.195122 23,58.4878049 C23,58.7804878 23.1939394,58.9756098 23.4848485,58.9756098 L38.5151515,58.9756098 C38.8060606,58.9756098 39,58.7804878 39,58.4878049 C39,58.195122 38.8060606,58 38.5151515,58 Z" id="Shape" fill="#FFFFFF"></path>
                                <path d="M9,60 L20,60 L20,50 L9,50 L9,60 Z M10,51 L19,51 L19,59 L10,59 L10,51 Z" id="Shape" fill="#FFFFFF"></path>
                                <path d="M38.5151515,64 L23.4848485,64 C23.1939394,64 23,64.195122 23,64.4878049 C23,64.7804878 23.1939394,64.9756098 23.4848485,64.9756098 L38.5151515,64.9756098 C38.8060606,64.9756098 39,64.7804878 39,64.4878049 C39,64.195122 38.8060606,64 38.5151515,64 Z" id="Shape" fill="#FFFFFF"></path>
                                <path d="M38.5151515,67 L23.4848485,67 C23.1939394,67 23,67.195122 23,67.4878049 C23,67.7804878 23.1939394,67.9756098 23.4848485,67.9756098 L38.5151515,67.9756098 C38.8060606,67.9756098 39,67.7804878 39,67.4878049 C39,67.195122 38.8060606,67 38.5151515,67 Z" id="Shape" fill="#FFFFFF"></path>
                            </g>
                        </g>
                    </g>
                </g>
            </g>
        </g>
    </g>
</svg>