<?xml version="1.0" encoding="UTF-8"?>
<svg width="80px" height="72px" viewBox="0 0 80 72" version="1.1" xmlns="http://www.w3.org/2000/svg" xmlns:xlink="http://www.w3.org/1999/xlink">
    <!-- Generator: Sketch 48.2 (47327) - http://www.bohemiancoding.com/sketch -->
    <title>branding-icon-hov</title>
    <desc>Created with Sketch.</desc>
    <defs></defs>
    <g id="v2" stroke="none" stroke-width="1" fill="none" fill-rule="evenodd" transform="translate(-406.000000, -895.000000)">
        <g id="branding-icon-hov" transform="translate(406.000000, 895.000000)">
            <path d="M68.1351611,68.3280904 L35.0521631,68.3400833 C32.5836568,68.3400833 30.5640733,66.3155741 30.5640733,63.841047 L30.5606552,62.655467" id="Shape" stroke="#1C2331" stroke-linecap="round" stroke-linejoin="round"></path>
            <path d="M31.0513085,39.544652 C31.0513085,39.8140592 30.8329108,40.0324569 30.5635036,40.0324569 C30.2940965,40.0324569 30.0756988,39.8140592 30.0756988,39.544652 L30.0756988,5.67738251 C30.0756988,2.9337139 32.3134135,0.690541344 35.0515934,0.690541344 L74.3670999,0.690541344 C77.1052798,0.690541344 79.3429945,2.9337139 79.3429945,5.67738251 L79.3429945,63.841047 C79.3429945,66.5847156 77.1052798,68.8278882 74.3670999,68.8278882 L72.4574684,68.8278882 C72.1880612,68.8278882 71.9696635,68.6094905 71.9696635,68.3400833 C71.9696635,68.0706761 72.1880612,67.8522784 72.4574684,67.8522784 L74.3670999,67.8522784 C76.5659326,67.8522784 78.3673847,66.0464325 78.3673847,63.841047 L78.3673847,5.67738251 C78.3673847,3.47199698 76.5659326,1.6661511 74.3670999,1.6661511 L35.0515934,1.6661511 C32.8527606,1.6661511 31.0513085,3.47199698 31.0513085,5.67738251 L31.0513085,39.544652 Z" id="Shape" fill="#1C2331" fill-rule="nonzero"></path>
            <path d="M30.5635036,8.81265913 L30.5635036,5.67738251 C30.5635036,3.20285544 32.5830871,1.17834622 35.0515934,1.17834622 L74.3670999,1.17834622 C76.8356062,1.17834622 78.8551896,3.20285544 78.8551896,5.67738251 L78.8551896,8.81265913 L30.5635036,8.81265913 Z" id="Shape" opacity="0.3" fill-rule="nonzero"></path>
            <path d="M31.0513085,8.32485425 L78.3673847,8.32485425 L78.3673847,5.67738251 C78.3673847,3.47199698 76.5659326,1.6661511 74.3670999,1.6661511 L35.0515934,1.6661511 C32.8527606,1.6661511 31.0513085,3.47199698 31.0513085,5.67738251 L31.0513085,8.32485425 Z M30.0756988,8.81265913 L30.0756988,5.67738251 C30.0756988,2.9337139 32.3134135,0.690541344 35.0515934,0.690541344 L74.3670999,0.690541344 C77.1052798,0.690541344 79.3429945,2.9337139 79.3429945,5.67738251 L79.3429945,8.81265913 C79.3429945,9.08206633 79.1245968,9.30046401 78.8551896,9.30046401 L30.5635036,9.30046401 C30.2940965,9.30046401 30.0756988,9.08206633 30.0756988,8.81265913 Z" id="Shape" fill="#1C2331" fill-rule="nonzero"></path>
            <path d="M35.9323482,17.7708507 C35.662941,17.7708507 35.4445434,17.552453 35.4445434,17.2830458 C35.4445434,17.0136386 35.662941,16.7952409 35.9323482,16.7952409 L71.2536941,16.7952409 C71.5231013,16.7952409 71.741499,17.0136386 71.741499,17.2830458 C71.741499,17.552453 71.5231013,17.7708507 71.2536941,17.7708507 L35.9323482,17.7708507 Z" id="Shape" fill="#1C2331" fill-rule="nonzero"></path>
            <path d="M35.9323482,32.6191553 C35.662941,32.6191553 35.4445434,32.4007576 35.4445434,32.1313504 C35.4445434,31.8619432 35.662941,31.6435455 35.9323482,31.6435455 L60.4294107,31.6435455 C60.6988179,31.6435455 60.9172156,31.8619432 60.9172156,32.1313504 C60.9172156,32.4007576 60.6988179,32.6191553 60.4294107,32.6191553 L35.9323482,32.6191553 Z" id="Shape" fill="#1C2331" fill-rule="nonzero"></path>
            <path d="M35.9323482,25.7660916 C35.662941,25.7660916 35.4445434,25.5476939 35.4445434,25.2782867 C35.4445434,25.0088795 35.662941,24.7904819 35.9323482,24.7904819 L63.8476055,24.7904819 C64.1170127,24.7904819 64.3354104,25.0088795 64.3354104,25.2782867 C64.3354104,25.5476939 64.1170127,25.7660916 63.8476055,25.7660916 L35.9323482,25.7660916 Z" id="Shape" fill="#1C2331" fill-rule="nonzero"></path>
            <g id="Group" transform="translate(67.630408, 36.692445)" stroke="#1C2331" stroke-linecap="round" stroke-linejoin="round" stroke-width="0.583941606">
                <path d="M0.505323126,0.461058894 L4.82876981,0.461058894" id="Shape"></path>
                <path d="M0.505323126,29.5209042 L4.82876981,29.5209042" id="Shape"></path>
                <path d="M0.505323126,26.4621535 L4.82876981,26.4621535" id="Shape"></path>
            </g>
            <rect id="Rectangle-path" fill="#1C2331" fill-rule="nonzero" opacity="0.3" x="68.1357308" y="63.1545985" width="4.32287698" height="3.05875074"></rect>
            <path d="M68.1357308,37.1535039 L72.4591775,37.1535039" id="Shape" stroke="#1C2331" stroke-width="0.583941606" stroke-linecap="round" stroke-linejoin="round"></path>
            <path d="M71.9713726,36.5060266 L70.2976817,33.2243308 L68.6235357,36.5060541 L68.6235357,70.5689471 L71.9713726,70.5689471 L71.9713726,36.5060266 Z M72.4591775,71.5445568 L68.1357308,71.5445568 C67.8663236,71.5445568 67.6479259,71.3261591 67.6479259,71.0567519 L67.6479259,36.3888162 C67.6479259,36.3117548 67.6661832,36.2357897 67.701202,36.1671446 L69.8632102,31.9290958 C70.0442422,31.5742302 70.5512973,31.5742572 70.7322915,31.9291422 L72.89373,36.167191 C72.9287334,36.2358241 72.9469824,36.3117724 72.9469824,36.3888162 L72.9469824,71.0567519 C72.9469824,71.3261591 72.7285847,71.5445568 72.4591775,71.5445568 Z" id="Shape" fill="#1C2331" fill-rule="nonzero"></path>
            <path d="M68.1357308,66.2133492 L72.4591775,66.2133492" id="Shape" stroke="#1C2331" stroke-width="0.583941606" stroke-linecap="round" stroke-linejoin="round"></path>
            <path d="M68.1357308,63.1545985 L72.4591775,63.1545985" id="Shape" stroke="#1C2331" stroke-width="0.583941606" stroke-linecap="round" stroke-linejoin="round"></path>
            <polygon id="Shape" fill="#1C2331" fill-rule="nonzero" opacity="0.3" points="72.4591775 37.1535039 68.1357308 37.1535039 68.1357308 36.3888162 70.297739 32.1507674 72.4591775 36.3888162"></polygon>
            <path d="M68.1357308,37.6413087 C67.8663236,37.6413087 67.6479259,37.4229111 67.6479259,37.1535039 C67.6479259,36.8840967 67.8663236,36.665699 68.1357308,36.665699 L72.4591775,36.665699 C72.7285847,36.665699 72.9469824,36.8840967 72.9469824,37.1535039 C72.9469824,37.4229111 72.7285847,37.6413087 72.4591775,37.6413087 L68.1357308,37.6413087 Z" id="Shape" fill="#1C2331" fill-rule="nonzero"></path>
            <path d="M68.1357308,66.7011541 C67.8663236,66.7011541 67.6479259,66.4827564 67.6479259,66.2133492 C67.6479259,65.943942 67.8663236,65.7255443 68.1357308,65.7255443 L72.4591775,65.7255443 C72.7285847,65.7255443 72.9469824,65.943942 72.9469824,66.2133492 C72.9469824,66.4827564 72.7285847,66.7011541 72.4591775,66.7011541 L68.1357308,66.7011541 Z" id="Shape" fill="#1C2331" fill-rule="nonzero"></path>
            <path d="M68.1357308,63.6424033 C67.8663236,63.6424033 67.6479259,63.4240056 67.6479259,63.1545985 C67.6479259,62.8851913 67.8663236,62.6667936 68.1357308,62.6667936 L72.4591775,62.6667936 C72.7285847,62.6667936 72.9469824,62.8851913 72.9469824,63.1545985 C72.9469824,63.4240056 72.7285847,63.6424033 72.4591775,63.6424033 L68.1357308,63.6424033 Z" id="Shape" fill="#1C2331" fill-rule="nonzero"></path>
            <path d="M1.77447036,40.0353123 L1.77447036,62.167091 L42.7543529,62.167091 L42.7543529,40.0353123 L1.77447036,40.0353123 Z M1.28666548,39.0597026 L43.2421577,39.0597026 C43.5115649,39.0597026 43.7299626,39.2781002 43.7299626,39.5475074 L43.7299626,62.6548959 C43.7299626,62.9243031 43.5115649,63.1427008 43.2421577,63.1427008 L1.28666548,63.1427008 C1.01725828,63.1427008 0.798860602,62.9243031 0.798860602,62.6548959 L0.798860602,39.5475074 C0.798860602,39.2781002 1.01725828,39.0597026 1.28666548,39.0597026 Z" id="Rectangle-path" fill="#1C2331" fill-rule="nonzero"></path>
            <rect id="Rectangle-path" opacity="0.3" fill-rule="nonzero" x="5.67733666" y="44.5668055" width="10.8544775" height="13.0208209"></rect>
            <path d="M6.16514153,45.0546104 L6.16514153,57.0998215 L16.0440093,57.0998215 L16.0440093,45.0546104 L6.16514153,45.0546104 Z M5.67733666,44.0790006 L16.5318141,44.0790006 C16.8012213,44.0790006 17.019619,44.2973983 17.019619,44.5668055 L17.019619,57.5876264 C17.019619,57.8570336 16.8012213,58.0754313 16.5318141,58.0754313 L5.67733666,58.0754313 C5.40792946,58.0754313 5.18953178,57.8570336 5.18953178,57.5876264 L5.18953178,44.5668055 C5.18953178,44.2973983 5.40792946,44.0790006 5.67733666,44.0790006 Z" id="Rectangle-path" fill="#1C2331" fill-rule="nonzero"></path>
            <path d="M21.68987,45.7541939 C21.4204628,45.7541939 21.2020652,45.5357962 21.2020652,45.2663891 C21.2020652,44.9969819 21.4204628,44.7785842 21.68987,44.7785842 L39.350543,44.7785842 C39.6199502,44.7785842 39.8383479,44.9969819 39.8383479,45.2663891 C39.8383479,45.5357962 39.6199502,45.7541939 39.350543,45.7541939 L21.68987,45.7541939 Z" id="Shape" fill="#1C2331" fill-rule="nonzero"></path>
            <path d="M21.68987,50.322903 C21.4204628,50.322903 21.2020652,50.1045054 21.2020652,49.8350982 C21.2020652,49.565691 21.4204628,49.3472933 21.68987,49.3472933 L33.6535517,49.3472933 C33.9229589,49.3472933 34.1413566,49.565691 34.1413566,49.8350982 C34.1413566,50.1045054 33.9229589,50.322903 33.6535517,50.322903 L21.68987,50.322903 Z" id="Shape" fill="#1C2331" fill-rule="nonzero"></path>
            <path d="M23.0622752,57.4460916 C22.0824679,57.4460916 21.2886594,56.650347 21.2886594,55.6693397 C21.2886594,54.6883323 22.0824679,53.8925877 23.0622752,53.8925877 C24.0420826,53.8925877 24.835891,54.6883323 24.835891,55.6693397 C24.835891,56.650347 24.0420826,57.4460916 23.0622752,57.4460916 Z M23.0622752,56.4704819 C23.5027354,56.4704819 23.8602813,56.1120639 23.8602813,55.6693397 C23.8602813,55.2266154 23.5027354,54.8681975 23.0622752,54.8681975 C22.621815,54.8681975 22.2642692,55.2266154 22.2642692,55.6693397 C22.2642692,56.1120639 22.621815,56.4704819 23.0622752,56.4704819 Z" id="Oval" fill="#1C2331" fill-rule="nonzero"></path>
            <path d="M28.9165035,57.4460916 C27.9366961,57.4460916 27.1428877,56.650347 27.1428877,55.6693397 C27.1428877,54.6883323 27.9366961,53.8925877 28.9165035,53.8925877 C29.8963108,53.8925877 30.6901193,54.6883323 30.6901193,55.6693397 C30.6901193,56.650347 29.8963108,57.4460916 28.9165035,57.4460916 Z M28.9165035,56.4704819 C29.3569637,56.4704819 29.7145095,56.1120639 29.7145095,55.6693397 C29.7145095,55.2266154 29.3569637,54.8681975 28.9165035,54.8681975 C28.4760433,54.8681975 28.1184974,55.2266154 28.1184974,55.6693397 C28.1184974,56.1120639 28.4760433,56.4704819 28.9165035,56.4704819 Z" id="Oval" fill="#1C2331" fill-rule="nonzero"></path>
            <path d="M34.7707317,57.4460916 C33.7909244,57.4460916 32.9971159,56.650347 32.9971159,55.6693397 C32.9971159,54.6883323 33.7909244,53.8925877 34.7707317,53.8925877 C35.750539,53.8925877 36.5443475,54.6883323 36.5443475,55.6693397 C36.5443475,56.650347 35.750539,57.4460916 34.7707317,57.4460916 Z M34.7707317,56.4704819 C35.2111919,56.4704819 35.5687378,56.1120639 35.5687378,55.6693397 C35.5687378,55.2266154 35.2111919,54.8681975 34.7707317,54.8681975 C34.3302715,54.8681975 33.9727257,55.2266154 33.9727257,55.6693397 C33.9727257,56.1120639 34.3302715,56.4704819 34.7707317,56.4704819 Z" id="Oval" fill="#1C2331" fill-rule="nonzero"></path>
        </g>
    </g>
</svg>