<?xml version="1.0" encoding="UTF-8"?>
<svg width="82px" height="74px" viewBox="0 0 82 74" version="1.1" xmlns="http://www.w3.org/2000/svg" xmlns:xlink="http://www.w3.org/1999/xlink">
    <!-- Generator: Sketch 48.2 (47327) - http://www.bohemiancoding.com/sketch -->
    <title>branding-icon</title>
    <desc>Created with Sketch.</desc>
    <defs></defs>
    <g id="v2" stroke="none" stroke-width="1" fill="none" fill-rule="evenodd" transform="translate(-762.000000, -415.000000)">
        <g id="Group-19" transform="translate(-7.000000, 0.000000)">
            <g id="Group-18" transform="translate(421.000000, 252.000000)">
                <g id="Group-21" transform="translate(0.000000, 137.000000)">
                    <g id="Group-15" transform="translate(319.000000, 0.000000)">
                        <g id="Group-11" transform="translate(29.000000, 26.000000)">
                            <g id="branding-icon">
                                <path d="M69.8385401,70.0362927 L35.9284672,70.0485854 C33.3982482,70.0485854 31.3281752,67.9734634 31.3281752,65.4370732 L31.3246715,64.2218537" id="Shape" stroke="#FFFFFF" stroke-linecap="round" stroke-linejoin="round"></path>
                                <path d="M31.8275912,40.5332683 C31.8275912,40.8094107 31.6037336,41.0332683 31.3275912,41.0332683 C31.0514489,41.0332683 30.8275912,40.8094107 30.8275912,40.5332683 L30.8275912,5.81931707 C30.8275912,3.00705675 33.1212488,0.707804878 35.9278832,0.707804878 L76.2262774,0.707804878 C79.0329118,0.707804878 81.3265693,3.00705675 81.3265693,5.81931707 L81.3265693,65.4370732 C81.3265693,68.2493335 79.0329118,70.5485854 76.2262774,70.5485854 L74.2689051,70.5485854 C73.9927627,70.5485854 73.7689051,70.3247277 73.7689051,70.0485854 C73.7689051,69.772443 73.9927627,69.5485854 74.2689051,69.5485854 L76.2262774,69.5485854 C78.4800809,69.5485854 80.3265693,67.6975933 80.3265693,65.4370732 L80.3265693,5.81931707 C80.3265693,3.55879691 78.4800809,1.70780488 76.2262774,1.70780488 L35.9278832,1.70780488 C33.6740796,1.70780488 31.8275912,3.55879691 31.8275912,5.81931707 L31.8275912,40.5332683 Z" id="Shape" fill="#FFFFFF" fill-rule="nonzero"></path>
                                <path d="M31.3275912,9.03297561 L31.3275912,5.81931707 C31.3275912,3.28292683 33.3976642,1.20780488 35.9278832,1.20780488 L76.2262774,1.20780488 C78.7564964,1.20780488 80.8265693,3.28292683 80.8265693,5.81931707 L80.8265693,9.03297561 L31.3275912,9.03297561 Z" id="Shape" opacity="0.3" fill-rule="nonzero"></path>
                                <path d="M31.8275912,8.53297561 L80.3265693,8.53297561 L80.3265693,5.81931707 C80.3265693,3.55879691 78.4800809,1.70780488 76.2262774,1.70780488 L35.9278832,1.70780488 C33.6740796,1.70780488 31.8275912,3.55879691 31.8275912,5.81931707 L31.8275912,8.53297561 Z M30.8275912,9.03297561 L30.8275912,5.81931707 C30.8275912,3.00705675 33.1212488,0.707804878 35.9278832,0.707804878 L76.2262774,0.707804878 C79.0329118,0.707804878 81.3265693,3.00705675 81.3265693,5.81931707 L81.3265693,9.03297561 C81.3265693,9.30911798 81.1027117,9.53297561 80.8265693,9.53297561 L31.3275912,9.53297561 C31.0514489,9.53297561 30.8275912,9.30911798 30.8275912,9.03297561 Z" id="Shape" fill="#FFFFFF" fill-rule="nonzero"></path>
                                <path d="M36.8306569,18.215122 C36.5545146,18.215122 36.3306569,17.9912643 36.3306569,17.715122 C36.3306569,17.4389796 36.5545146,17.215122 36.8306569,17.215122 L73.0350365,17.215122 C73.3111789,17.215122 73.5350365,17.4389796 73.5350365,17.715122 C73.5350365,17.9912643 73.3111789,18.215122 73.0350365,18.215122 L36.8306569,18.215122 Z" id="Shape" fill="#FFFFFF" fill-rule="nonzero"></path>
                                <path d="M36.8306569,33.4346341 C36.5545146,33.4346341 36.3306569,33.2107765 36.3306569,32.9346341 C36.3306569,32.6584918 36.5545146,32.4346341 36.8306569,32.4346341 L61.940146,32.4346341 C62.2162884,32.4346341 62.440146,32.6584918 62.440146,32.9346341 C62.440146,33.2107765 62.2162884,33.4346341 61.940146,33.4346341 L36.8306569,33.4346341 Z" id="Shape" fill="#FFFFFF" fill-rule="nonzero"></path>
                                <path d="M36.8306569,26.4102439 C36.5545146,26.4102439 36.3306569,26.1863863 36.3306569,25.9102439 C36.3306569,25.6341015 36.5545146,25.4102439 36.8306569,25.4102439 L65.4437956,25.4102439 C65.719938,25.4102439 65.9437956,25.6341015 65.9437956,25.9102439 C65.9437956,26.1863863 65.719938,26.4102439 65.4437956,26.4102439 L36.8306569,26.4102439 Z" id="Shape" fill="#FFFFFF" fill-rule="nonzero"></path>
                                <g id="Group" transform="translate(69.321168, 37.609756)" stroke="#3D6CB4" stroke-linecap="round" stroke-linejoin="round" stroke-width="0.583941606">
                                    <path d="M0.517956204,0.472585366 L4.94948905,0.472585366" id="Shape"></path>
                                    <path d="M0.517956204,30.2589268 L4.94948905,30.2589268" id="Shape"></path>
                                    <path d="M0.517956204,27.1237073 L4.94948905,27.1237073" id="Shape"></path>
                                </g>
                                <rect id="Rectangle-path" fill="#FFFFFF" fill-rule="nonzero" opacity="0.3" x="69.8391241" y="64.7334634" width="4.43094891" height="3.13521951"></rect>
                                <path d="M69.8391241,38.0823415 L74.2706569,38.0823415" id="Shape" stroke="#FFFFFF" stroke-width="0.583941606" stroke-linecap="round" stroke-linejoin="round"></path>
                                <path d="M73.7706569,37.4186772 L72.0551238,34.0549391 L70.3391241,37.4187054 L70.3391241,72.3331707 L73.7706569,72.3331707 L73.7706569,37.4186772 Z M74.2706569,73.3331707 L69.8391241,73.3331707 C69.5629817,73.3331707 69.3391241,73.1093131 69.3391241,72.8331707 L69.3391241,37.2985366 C69.3391241,37.2195486 69.3578378,37.1416844 69.393732,37.0713232 L71.6097904,32.7273232 C71.7953482,32.3635859 72.3150798,32.3636136 72.5005988,32.7273707 L74.7160732,37.0713707 C74.7519518,37.1417197 74.7706569,37.2195667 74.7706569,37.2985366 L74.7706569,72.8331707 C74.7706569,73.1093131 74.5467993,73.3331707 74.2706569,73.3331707 Z" id="Shape" fill="#FFFFFF" fill-rule="nonzero"></path>
                                <path d="M69.8391241,67.8686829 L74.2706569,67.8686829" id="Shape" stroke="#FFFFFF" stroke-width="0.583941606" stroke-linecap="round" stroke-linejoin="round"></path>
                                <path d="M69.8391241,64.7334634 L74.2706569,64.7334634" id="Shape" stroke="#FFFFFF" stroke-width="0.583941606" stroke-linecap="round" stroke-linejoin="round"></path>
                                <polygon id="Shape" fill="#FFFFFF" fill-rule="nonzero" opacity="0.3" points="74.2706569 38.0823415 69.8391241 38.0823415 69.8391241 37.2985366 72.0551825 32.9545366 74.2706569 37.2985366"></polygon>
                                <path d="M69.8391241,38.5823415 C69.5629817,38.5823415 69.3391241,38.3584838 69.3391241,38.0823415 C69.3391241,37.8061991 69.5629817,37.5823415 69.8391241,37.5823415 L74.2706569,37.5823415 C74.5467993,37.5823415 74.7706569,37.8061991 74.7706569,38.0823415 C74.7706569,38.3584838 74.5467993,38.5823415 74.2706569,38.5823415 L69.8391241,38.5823415 Z" id="Shape" fill="#FFFFFF" fill-rule="nonzero"></path>
                                <path d="M69.8391241,68.3686829 C69.5629817,68.3686829 69.3391241,68.1448253 69.3391241,67.8686829 C69.3391241,67.5925406 69.5629817,67.3686829 69.8391241,67.3686829 L74.2706569,67.3686829 C74.5467993,67.3686829 74.7706569,67.5925406 74.7706569,67.8686829 C74.7706569,68.1448253 74.5467993,68.3686829 74.2706569,68.3686829 L69.8391241,68.3686829 Z" id="Shape" fill="#FFFFFF" fill-rule="nonzero"></path>
                                <path d="M69.8391241,65.2334634 C69.5629817,65.2334634 69.3391241,65.0096058 69.3391241,64.7334634 C69.3391241,64.457321 69.5629817,64.2334634 69.8391241,64.2334634 L74.2706569,64.2334634 C74.5467993,64.2334634 74.7706569,64.457321 74.7706569,64.7334634 C74.7706569,65.0096058 74.5467993,65.2334634 74.2706569,65.2334634 L69.8391241,65.2334634 Z" id="Shape" fill="#FFFFFF" fill-rule="nonzero"></path>
                                <path d="M1.81883212,41.0361951 L1.81883212,63.7212683 L43.8232117,63.7212683 L43.8232117,41.0361951 L1.81883212,41.0361951 Z M1.31883212,40.0361951 L44.3232117,40.0361951 C44.5993541,40.0361951 44.8232117,40.2600527 44.8232117,40.5361951 L44.8232117,64.2212683 C44.8232117,64.4974107 44.5993541,64.7212683 44.3232117,64.7212683 L1.31883212,64.7212683 C1.04268974,64.7212683 0.818832117,64.4974107 0.818832117,64.2212683 L0.818832117,40.5361951 C0.818832117,40.2600527 1.04268974,40.0361951 1.31883212,40.0361951 Z" id="Rectangle-path" fill="#FFFFFF" fill-rule="nonzero"></path>
                                <rect id="Rectangle-path" opacity="0.3" fill-rule="nonzero" x="5.81927007" y="45.6809756" width="11.1258394" height="13.3463415"></rect>
                                <path d="M6.31927007,46.1809756 L6.31927007,58.5273171 L16.4451095,58.5273171 L16.4451095,46.1809756 L6.31927007,46.1809756 Z M5.81927007,45.1809756 L16.9451095,45.1809756 C17.2212519,45.1809756 17.4451095,45.4048332 17.4451095,45.6809756 L17.4451095,59.0273171 C17.4451095,59.3034594 17.2212519,59.5273171 16.9451095,59.5273171 L5.81927007,59.5273171 C5.5431277,59.5273171 5.31927007,59.3034594 5.31927007,59.0273171 L5.31927007,45.6809756 C5.31927007,45.4048332 5.5431277,45.1809756 5.81927007,45.1809756 Z" id="Rectangle-path" fill="#FFFFFF" fill-rule="nonzero"></path>
                                <path d="M22.2321168,46.8980488 C21.9559744,46.8980488 21.7321168,46.6741912 21.7321168,46.3980488 C21.7321168,46.1219064 21.9559744,45.8980488 22.2321168,45.8980488 L40.3343066,45.8980488 C40.6104489,45.8980488 40.8343066,46.1219064 40.8343066,46.3980488 C40.8343066,46.6741912 40.6104489,46.8980488 40.3343066,46.8980488 L22.2321168,46.8980488 Z" id="Shape" fill="#FFFFFF" fill-rule="nonzero"></path>
                                <path d="M22.2321168,51.5809756 C21.9559744,51.5809756 21.7321168,51.357118 21.7321168,51.0809756 C21.7321168,50.8048332 21.9559744,50.5809756 22.2321168,50.5809756 L34.4948905,50.5809756 C34.7710329,50.5809756 34.9948905,50.8048332 34.9948905,51.0809756 C34.9948905,51.357118 34.7710329,51.5809756 34.4948905,51.5809756 L22.2321168,51.5809756 Z" id="Shape" fill="#FFFFFF" fill-rule="nonzero"></path>
                                <path d="M23.6388321,58.8822439 C22.6345296,58.8822439 21.8208759,58.0666057 21.8208759,57.0610732 C21.8208759,56.0555406 22.6345296,55.2399024 23.6388321,55.2399024 C24.6431346,55.2399024 25.4567883,56.0555406 25.4567883,57.0610732 C25.4567883,58.0666057 24.6431346,58.8822439 23.6388321,58.8822439 Z M23.6388321,57.8822439 C24.0903038,57.8822439 24.4567883,57.5148655 24.4567883,57.0610732 C24.4567883,56.6072808 24.0903038,56.2399024 23.6388321,56.2399024 C23.1873604,56.2399024 22.8208759,56.6072808 22.8208759,57.0610732 C22.8208759,57.5148655 23.1873604,57.8822439 23.6388321,57.8822439 Z" id="Oval" fill="#FFFFFF" fill-rule="nonzero"></path>
                                <path d="M29.6394161,58.8822439 C28.6351135,58.8822439 27.8214599,58.0666057 27.8214599,57.0610732 C27.8214599,56.0555406 28.6351135,55.2399024 29.6394161,55.2399024 C30.6437186,55.2399024 31.4573723,56.0555406 31.4573723,57.0610732 C31.4573723,58.0666057 30.6437186,58.8822439 29.6394161,58.8822439 Z M29.6394161,57.8822439 C30.0908878,57.8822439 30.4573723,57.5148655 30.4573723,57.0610732 C30.4573723,56.6072808 30.0908878,56.2399024 29.6394161,56.2399024 C29.1879444,56.2399024 28.8214599,56.6072808 28.8214599,57.0610732 C28.8214599,57.5148655 29.1879444,57.8822439 29.6394161,57.8822439 Z" id="Oval" fill="#FFFFFF" fill-rule="nonzero"></path>
                                <path d="M35.64,58.8822439 C34.6356975,58.8822439 33.8220438,58.0666057 33.8220438,57.0610732 C33.8220438,56.0555406 34.6356975,55.2399024 35.64,55.2399024 C36.6443025,55.2399024 37.4579562,56.0555406 37.4579562,57.0610732 C37.4579562,58.0666057 36.6443025,58.8822439 35.64,58.8822439 Z M35.64,57.8822439 C36.0914717,57.8822439 36.4579562,57.5148655 36.4579562,57.0610732 C36.4579562,56.6072808 36.0914717,56.2399024 35.64,56.2399024 C35.1885283,56.2399024 34.8220438,56.6072808 34.8220438,57.0610732 C34.8220438,57.5148655 35.1885283,57.8822439 35.64,57.8822439 Z" id="Oval" fill="#FFFFFF" fill-rule="nonzero"></path>
                            </g>
                        </g>
                    </g>
                </g>
            </g>
        </g>
    </g>
</svg>