<svg xmlns="http://www.w3.org/2000/svg" viewBox="0 0 169.92 46.77"><title>Asset 1</title><path d="M3.82,11.05H18.49c7.17,0,10.85.87,13.8,3.35a15.16,15.16,0,0,1,5.29,11.93A16,16,0,0,1,32.83,38c-2.95,2.75-6.77,3.89-13.06,3.89h-5V55.94h-11Zm15.61,20.7c2.75,0,4.29-.33,5.43-1.27a5.45,5.45,0,0,0,1.74-4,5.12,5.12,0,0,0-2.08-4.22c-1.07-.74-2.75-1.07-5.49-1.07H14.81V31.76Z" transform="translate(-3.82 -10.12)" style="fill:#231f20"/><path d="M54.14,11.05V38.19c0,5.9,1.81,8.51,5.9,8.51a5.54,5.54,0,0,0,4.29-1.81c1.07-1.27,1.41-2.81,1.41-6.7V11.05H77.18V38.19c0,6.7-1.21,10.45-4.49,13.73-3.08,3.22-7.44,4.89-12.66,4.89S50.38,55.14,47.17,52s-4.49-6.77-4.49-13.8V11.05Z" transform="translate(-3.82 -10.12)" style="fill:#231f20"/><path d="M102.11,24.12c-.4-3-1.61-4.36-4.09-4.36a3.72,3.72,0,0,0-4,3.55,3.35,3.35,0,0,0,1.14,2.55c1.07,1.07,1.07,1.07,8.17,4.29,7.5,3.42,10.52,7.1,10.52,12.93,0,8.58-5.9,13.8-15.68,13.8-7.91,0-13.4-3.22-15.48-9.25-.74-2-.87-3.22-.87-6.5H93.4c0,3.75,1.81,6.1,4.62,6.1a4.31,4.31,0,0,0,4.42-4.29A3.94,3.94,0,0,0,101.1,40c-1.34-1.14-1.34-1.14-8.64-4.09-6.37-2.61-9.85-7-9.85-12.46,0-7.44,6.9-13.33,15.75-13.33,4.89,0,9.45,1.94,12.13,5.16,2,2.41,2.75,4.62,3,8.84Z" transform="translate(-3.82 -10.12)" style="fill:#231f20"/><path d="M119.93,11.05h11.46V27.87h14.67V11.05h11.46V55.94H146.06V38H131.39v18H119.93Z" transform="translate(-3.82 -10.12)" style="fill:#231f20"/><circle cx="165.25" cy="41.74" r="4.67" style="fill:#ee2a24"/></svg>