<?xml version="1.0" encoding="utf-8"?>
<!-- Generator: Adobe Illustrator 21.1.0, SVG Export Plug-In . SVG Version: 6.00 Build 0)  -->
<svg version="1.1" id="Layer_1" xmlns="http://www.w3.org/2000/svg" xmlns:xlink="http://www.w3.org/1999/xlink" x="0px" y="0px"
	 viewBox="0 0 169.9 46.8" style="enable-background:new 0 0 169.9 46.8;" xml:space="preserve">
<style type="text/css">
	.st0{fill:#FCFCFC;}
	.st1{fill:#F46326;}
</style>
<title>Asset 1</title>
<path class="st0" d="M0,0.9h14.7c7.2,0,10.9,0.9,13.8,3.3c3.5,3,5.4,7.4,5.3,11.9c0.1,4.4-1.6,8.6-4.8,11.7c-3,2.8-6.8,3.9-13.1,3.9
	h-5v14H0L0,0.9z M15.6,21.6c2.8,0,4.3-0.3,5.4-1.3c1.1-1,1.7-2.5,1.7-4c0-1.7-0.7-3.2-2.1-4.2c-1.1-0.7-2.8-1.1-5.5-1.1H11v10.6
	L15.6,21.6z"/>
<path class="st0" d="M50.3,0.9v27.1c0,5.9,1.8,8.5,5.9,8.5c1.6,0.1,3.2-0.6,4.3-1.8c1.1-1.3,1.4-2.8,1.4-6.7V0.9h11.4v27.1
	c0,6.7-1.2,10.5-4.5,13.7c-3.1,3.2-7.4,4.9-12.7,4.9s-9.7-1.7-12.9-4.8s-4.5-6.8-4.5-13.8V0.9H50.3z"/>
<path class="st0" d="M98.3,14c-0.4-3-1.6-4.4-4.1-4.4c-2-0.2-3.8,1.4-4,3.4c0,0,0,0.1,0,0.1c0,1,0.4,1.9,1.1,2.5
	c1.1,1.1,1.1,1.1,8.2,4.3C107,23.5,110,27.1,110,33c0,8.6-5.9,13.8-15.7,13.8c-7.9,0-13.4-3.2-15.5-9.2c-0.7-2-0.9-3.2-0.9-6.5h11.6
	c0,3.8,1.8,6.1,4.6,6.1c2.4,0.1,4.4-1.8,4.4-4.2c0,0,0-0.1,0-0.1c0-1.1-0.5-2.2-1.3-2.9c-1.3-1.1-1.3-1.1-8.6-4.1
	c-6.4-2.6-9.8-7-9.8-12.5C78.8,5.9,85.7,0,94.5,0c4.9,0,9.4,1.9,12.1,5.2c2,2.4,2.8,4.6,3,8.8H98.3z"/>
<path class="st0" d="M116.1,0.9h11.5v16.8h14.7V0.9h11.5v44.9h-11.5V27.9h-14.7v18h-11.5V0.9z"/>
<circle class="st1" cx="165.2" cy="41.7" r="4.7"/>
</svg>
