<?xml version="1.0" encoding="UTF-8"?>
<svg width="638px" height="266px" viewBox="0 0 638 266" version="1.1" xmlns="http://www.w3.org/2000/svg" xmlns:xlink="http://www.w3.org/1999/xlink">
    <!-- Generator: Sketch 49.3 (51167) - http://www.bohemiancoding.com/sketch -->
    <title>Artboard Copy</title>
    <desc>Created with Sketch.</desc>
    <defs>
        <polygon id="path-1" points="0.258 0.434 132.113554 0.434 132.113554 185.4685 0.258 185.4685"></polygon>
    </defs>
    <g id="Artboard-Copy" stroke="none" stroke-width="1" fill="none" fill-rule="evenodd">
        <g id="Page-1">
            <g id="Group-3" transform="translate(1.000000, 0.566000)">
                <mask id="mask-2" fill="white">
                    <use xlink:href="#path-1"></use>
                </mask>
                <g id="Clip-2"></g>
                <path d="M61.32,86.1475 C72.043,86.1475 78.048,84.8605 82.493,81.1955 C82.802,80.9075 83.128,80.5705 83.466,80.1925 C92.063,70.5705 91.93,55.8695 83.357,46.2235 C82.596,45.3685 81.858,44.6535 81.167,44.1445 C76.995,41.2585 70.444,39.9715 59.76,39.9715 L48.305,39.9715 C45.544,39.9715 43.305,42.2095 43.305,44.9715 L43.305,81.1755 C43.305,83.9415 45.55,86.1815 48.316,86.1755 L61.32,86.1475 Z M0.453,0.4335 L57.654,0.4335 C85.612,0.4335 99.961,3.8265 111.464,13.4965 C125.004,25.0975 132.583,42.1905 132.091,60.0135 C132.401,77.0775 125.707,98.5215 113.57,110.5175 C102.067,121.2405 87.172,125.6855 62.646,125.6855 L45.453,125.6855 C44.181,125.6855 43.15,126.7165 43.15,127.9885 L43.15,185.4685 L0.258,185.4685 L0.453,0.4335 Z" id="Fill-1" fill="#231F20" mask="url(#mask-2)"></path>
            </g>
            <path d="M192.5455,1.2486 C195.3065,1.2486 197.5455,3.4866 197.5455,6.2476 L197.5455,114.6876 C197.5455,137.1746 204.4435,147.1226 220.0325,147.1226 C226.2315,147.3366 232.2105,144.8126 236.3825,140.2246 C240.4615,135.3836 241.7565,129.5146 241.7565,114.6876 L241.7565,7.2476 C241.7565,3.9346 244.4425,1.2486 247.7565,1.2486 L285.3585,1.2486 L285.3585,114.6876 C285.3585,140.2246 280.7475,154.5166 268.2455,167.0186 C256.5065,179.2906 239.8895,185.6546 219.9945,185.6546 C200.0985,185.6546 183.2145,179.2906 170.9805,167.3226 C158.7455,155.3546 153.8665,141.5196 153.8665,114.7266 L153.8665,1.2486 L192.5455,1.2486 Z" id="Fill-4" fill="#231F20"></path>
            <path d="M386.2213,54.0963 C383.4803,54.0963 381.0923,52.2313 380.4133,49.5753 C378.3483,41.4943 373.8883,37.7813 365.9603,37.7813 C358.2943,37.1953 351.6053,42.9343 351.0193,50.6013 C351.0073,50.7553 350.9983,55.1363 350.9923,55.2913 C350.9563,58.9423 352.5143,62.4263 355.2583,64.8333 C359.2623,68.8383 359.2623,68.8383 385.8313,80.8883 C413.8993,93.6863 425.2003,112.7403 425.2003,134.5573 C425.2003,166.6653 403.1203,186.2003 366.5223,186.2003 C336.9213,186.2003 316.3763,174.1503 308.5923,151.5843 C305.8233,144.1003 305.3373,139.5343 305.3373,127.2603 L343.0693,127.2603 C346.0833,127.2603 348.6053,129.5043 349.0133,132.4923 C350.5083,143.4443 356.8213,150.0873 365.9603,150.0873 C374.8663,150.3153 382.2693,143.2813 382.4963,134.3753 C382.4993,134.2613 382.5003,128.8653 382.5013,128.7513 C382.4803,124.5353 380.6543,120.5313 377.4873,117.7483 C372.4723,113.4833 372.4723,113.4833 345.1543,102.4433 C321.3163,92.6763 308.2933,72.0223 308.2933,51.5893 C308.2933,23.7473 334.1153,1.7053 367.2333,1.7053 C385.5333,1.7053 402.5973,8.9653 412.6263,21.0153 C420.1113,30.0343 422.9173,38.3043 423.8533,54.0963 L386.2213,54.0963 Z" id="Fill-6" fill="#231F20"></path>
            <path d="M445.2643,1.0543 L484.8763,1.0543 C487.6373,1.0543 489.8753,3.2923 489.8753,6.0533 L489.8753,69.2283 C489.8753,70.4993 490.9073,71.5313 492.1783,71.5313 L534.6813,71.5313 C535.9523,71.5313 536.9843,70.4993 536.9843,69.2283 L536.9843,6.0533 C536.9843,3.2923 539.2223,1.0543 541.9843,1.0543 L581.5963,1.0543 L581.5963,185.8013 L541.9843,185.8013 C539.2223,185.8013 536.9843,183.5633 536.9843,180.8023 L536.9843,113.2683 C536.9843,111.9953 535.9523,110.9653 534.6813,110.9653 L492.1783,110.9653 C490.9073,110.9653 489.8753,111.9953 489.8753,113.2683 L489.8753,181.0353 C489.8753,183.7963 487.6373,186.0343 484.8763,186.0343 L445.2643,186.0343 L445.2643,1.0543 Z" id="Fill-8" fill="#231F20"></path>
            <path d="M618.0631,145.7437 C629.1161,144.6487 638.3291,153.8617 637.2341,164.9147 C636.4241,173.0937 629.8091,179.7097 621.6291,180.5187 C610.5771,181.6137 601.3651,172.4007 602.4591,161.3477 C603.2691,153.1697 609.8841,146.5547 618.0631,145.7437" id="Fill-10" fill="#F46326"></path>
            <path d="M10.3683,262.6129 C7.0483,260.6449 4.4903,257.8159 2.6943,254.1279 C0.8973,250.4409 0.0003,246.0859 0.0003,241.0619 C0.0003,236.0849 0.8973,231.7529 2.6943,228.0629 C4.4903,224.3759 7.0483,221.5479 10.3683,219.5789 C13.6873,217.6099 17.6213,216.6269 22.1693,216.6269 C25.2153,216.6269 28.0923,217.1129 30.7983,218.0869 C33.5033,219.0599 35.8563,220.4509 37.8583,222.2599 C38.5853,222.9379 38.9493,223.7309 38.9493,224.6349 C38.9493,225.2699 38.7673,225.8239 38.4043,226.2989 C38.0393,226.7739 37.6073,227.0109 37.1083,227.0109 C36.5623,227.0109 35.9023,226.7629 35.1293,226.2639 C32.8103,224.4559 30.7063,223.1889 28.8193,222.4649 C26.9323,221.7409 24.7613,221.3789 22.3053,221.3789 C17.0293,221.3789 12.9713,223.0859 10.1303,226.5029 C7.2863,229.9189 5.8663,234.7719 5.8663,241.0619 C5.8663,247.3979 7.2863,252.2729 10.1303,255.6889 C12.9713,259.1069 17.0293,260.8139 22.3053,260.8139 C24.7153,260.8139 26.8763,260.4529 28.7853,259.7279 C30.6963,259.0059 32.8103,257.7369 35.1293,255.9259 C35.9023,255.4299 36.5623,255.1789 37.1083,255.1789 C37.6073,255.1789 38.0393,255.4069 38.4043,255.8589 C38.7673,256.3119 38.9493,256.8769 38.9493,257.5549 C38.9493,258.4619 38.5853,259.2529 37.8583,259.9309 C35.8563,261.7419 33.5033,263.1339 30.7983,264.1059 C28.0923,265.0789 25.2153,265.5659 22.1693,265.5659 C17.6213,265.5659 13.6873,264.5809 10.3683,262.6129" id="Fill-12" fill="#231F20"></path>
            <path d="M69.0778,240.1803 C72.8068,240.1803 75.5918,239.4103 77.4338,237.8713 C79.2758,236.3333 80.1968,234.0023 80.1968,230.8803 C80.1968,227.8033 79.2868,225.5173 77.4688,224.0253 C75.6488,222.5323 72.8518,221.7843 69.0778,221.7843 L55.2988,221.7843 L55.2988,240.1803 L69.0778,240.1803 Z M86.9498,263.1223 C86.9498,263.8013 86.6878,264.3553 86.1648,264.7853 C85.6418,265.2133 85.0398,265.4293 84.3578,265.4293 C83.3108,265.4293 82.4928,264.9783 81.9018,264.0723 L72.7618,249.6823 C71.5778,247.8273 70.3508,246.5493 69.0778,245.8463 C67.8038,245.1453 66.0768,244.7943 63.8938,244.7943 L55.2988,244.7943 L55.2988,262.5113 C55.2988,263.3713 55.0478,264.0623 54.5488,264.5803 C54.0478,265.1003 53.3888,265.3613 52.5698,265.3613 C51.7058,265.3613 51.0238,265.1003 50.5248,264.5803 C50.0228,264.0623 49.7738,263.3713 49.7738,262.5113 L49.7738,219.8843 C49.7738,219.0703 50.0358,218.4143 50.5578,217.9153 C51.0798,217.4183 51.7748,217.1693 52.6388,217.1693 L69.5558,217.1693 C74.7848,217.1693 78.7748,218.3233 81.5268,220.6313 C84.2778,222.9383 85.6538,226.3313 85.6538,230.8133 C85.6538,234.6143 84.5508,237.6683 82.3458,239.9753 C80.1398,242.2843 76.9908,243.6873 72.8978,244.1833 C74.0338,244.5473 75.0578,245.1353 75.9678,245.9503 C76.8768,246.7633 77.7858,247.8963 78.6968,249.3433 L86.4728,261.5613 C86.7898,262.0593 86.9498,262.5783 86.9498,263.1223 Z" id="Fill-14" fill="#231F20"></path>
            <path d="M98.3502,264.276 C97.8272,263.778 97.5652,263.123 97.5652,262.307 L97.5652,219.884 C97.5652,219.07 97.8272,218.415 98.3502,217.916 C98.8722,217.419 99.5662,217.17 100.4312,217.17 L125.9422,217.17 C126.7602,217.17 127.3972,217.374 127.8522,217.78 C128.3062,218.188 128.5352,218.754 128.5352,219.477 C128.5352,220.202 128.3062,220.767 127.8522,221.173 C127.3972,221.582 126.7602,221.785 125.9422,221.785 L103.0912,221.785 L103.0912,238.416 L124.5782,238.416 C125.3962,238.416 126.0332,238.619 126.4882,239.025 C126.9422,239.433 127.1702,239.999 127.1702,240.722 C127.1702,241.447 126.9422,242.012 126.4882,242.419 C126.0332,242.827 125.3962,243.03 124.5782,243.03 L103.0912,243.03 L103.0912,260.408 L125.9422,260.408 C126.7602,260.408 127.3972,260.6 127.8522,260.983 C128.3062,261.37 128.5352,261.945 128.5352,262.714 C128.5352,263.439 128.3062,264.005 127.8522,264.411 C127.3972,264.819 126.7602,265.022 125.9422,265.022 L100.4312,265.022 C99.5662,265.022 98.8722,264.775 98.3502,264.276" id="Fill-16" fill="#231F20"></path>
            <path d="M148.0446,248.1207 L169.6686,248.1207 L158.8216,223.7527 L148.0446,248.1207 Z M181.6056,262.9867 C181.6056,263.6647 181.3426,264.2307 180.8206,264.6837 C180.2976,265.1347 179.6716,265.3607 178.9446,265.3607 C177.8076,265.3607 177.0116,264.8187 176.5576,263.7317 L171.7136,252.7377 L145.9976,252.7377 L141.0866,263.7317 C140.6316,264.8187 139.8356,265.3607 138.6996,265.3607 C137.9716,265.3607 137.3356,265.1237 136.7896,264.6497 C136.2436,264.1747 135.9706,263.5967 135.9706,262.9187 C135.9706,262.5567 136.0616,262.1937 136.2436,261.8317 L155.7526,218.6617 C156.0256,218.0297 156.4346,217.5547 156.9806,217.2377 C157.5256,216.9217 158.1166,216.7627 158.7536,216.7627 C159.4366,216.7627 160.0496,216.9317 160.5956,217.2707 C161.1416,217.6097 161.5506,218.0747 161.8236,218.6617 L181.3326,261.8317 C181.5136,262.1937 181.6056,262.5787 181.6056,262.9867 Z" id="Fill-18" fill="#231F20"></path>
            <path d="M203.5294,264.5807 C203.0064,264.0617 202.7444,263.3717 202.7444,262.5117 L202.7444,221.9207 L188.0794,221.9207 C187.2604,221.9207 186.6234,221.7177 186.1694,221.3097 C185.7134,220.9027 185.4874,220.3147 185.4874,219.5447 C185.4874,218.7757 185.7134,218.1877 186.1694,217.7797 C186.6234,217.3737 187.2604,217.1697 188.0794,217.1697 L223.0724,217.1697 C223.8914,217.1697 224.5274,217.3737 224.9824,217.7797 C225.4364,218.1877 225.6644,218.7757 225.6644,219.5447 C225.6644,220.3147 225.4364,220.9027 224.9824,221.3097 C224.5274,221.7177 223.8914,221.9207 223.0724,221.9207 L208.4064,221.9207 L208.4064,262.5117 C208.4064,263.3717 208.1554,264.0617 207.6564,264.5807 C207.1554,265.1007 206.4724,265.3607 205.6104,265.3607 C204.7454,265.3607 204.0514,265.1007 203.5294,264.5807" id="Fill-20" fill="#231F20"></path>
            <path d="M240.8703,264.5807 C240.3693,264.0617 240.1203,263.3717 240.1203,262.5117 L240.1203,219.6817 C240.1203,218.8207 240.3693,218.1317 240.8703,217.6097 C241.3703,217.0907 242.0523,216.8297 242.9163,216.8297 C243.7803,216.8297 244.4613,217.0907 244.9623,217.6097 C245.4633,218.1317 245.7133,218.8207 245.7133,219.6817 L245.7133,262.5117 C245.7133,263.3717 245.4633,264.0617 244.9623,264.5807 C244.4613,265.1007 243.7803,265.3607 242.9163,265.3607 C242.0523,265.3607 241.3703,265.1007 240.8703,264.5807" id="Fill-22" fill="#231F20"></path>
            <path d="M299.8947,217.1021 C300.3267,216.8301 300.7917,216.6941 301.2927,216.6941 C302.0197,216.6941 302.6677,216.9311 303.2377,217.4071 C303.8057,217.8811 304.0897,218.4581 304.0897,219.1381 C304.0897,219.5001 303.9987,219.8631 303.8167,220.2231 L284.2397,263.5291 C283.9677,264.1181 283.5587,264.5701 283.0117,264.8871 C282.4667,265.2021 281.8747,265.3611 281.2387,265.3611 C280.6017,265.3611 280.0107,265.2021 279.4647,264.8871 C278.9197,264.5701 278.5097,264.1181 278.2367,263.5291 L258.7277,220.2231 C258.5917,219.8631 258.5237,219.5221 258.5237,219.2061 C258.5237,218.4821 258.8187,217.8811 259.4107,217.4071 C260.0007,216.9311 260.6607,216.6941 261.3887,216.6941 C262.4797,216.6941 263.2747,217.2151 263.7757,218.2551 L281.3747,257.8281 L298.9057,218.2551 C299.1327,217.7571 299.4617,217.3731 299.8947,217.1021" id="Fill-24" fill="#231F20"></path>
            <path d="M314.4445,264.276 C313.9215,263.778 313.6595,263.123 313.6595,262.307 L313.6595,219.884 C313.6595,219.07 313.9215,218.415 314.4445,217.916 C314.9655,217.419 315.6605,217.17 316.5255,217.17 L342.0355,217.17 C342.8545,217.17 343.4905,217.374 343.9455,217.78 C344.4005,218.188 344.6285,218.754 344.6285,219.477 C344.6285,220.202 344.4005,220.767 343.9455,221.173 C343.4905,221.582 342.8545,221.785 342.0355,221.785 L319.1855,221.785 L319.1855,238.416 L340.6715,238.416 C341.4905,238.416 342.1265,238.619 342.5825,239.025 C343.0355,239.433 343.2645,239.999 343.2645,240.722 C343.2645,241.447 343.0355,242.012 342.5825,242.419 C342.1265,242.827 341.4905,243.03 340.6715,243.03 L319.1855,243.03 L319.1855,260.408 L342.0355,260.408 C342.8545,260.408 343.4905,260.6 343.9455,260.983 C344.4005,261.37 344.6285,261.945 344.6285,262.714 C344.6285,263.439 344.4005,264.005 343.9455,264.411 C343.4905,264.819 342.8545,265.022 342.0355,265.022 L316.5255,265.022 C315.6605,265.022 314.9655,264.775 314.4445,264.276" id="Fill-26" fill="#231F20"></path>
            <path d="M420.233,258.3365 C422.029,256.9565 422.928,254.7965 422.928,251.8545 C422.928,245.9725 419.244,243.0295 411.878,243.0295 L397.893,243.0295 L397.893,260.4075 L411.878,260.4075 C415.651,260.4075 418.436,259.7185 420.233,258.3365 Z M397.893,238.4155 L410.853,238.4155 C414.446,238.4155 417.164,237.6915 419.005,236.2425 C420.847,234.7945 421.768,232.6905 421.768,229.9305 C421.768,224.4995 418.129,221.7845 410.853,221.7845 L397.893,221.7845 L397.893,238.4155 Z M426.099,244.5235 C427.623,246.5155 428.384,249.0035 428.384,251.9905 C428.384,256.1985 426.998,259.4225 424.224,261.6625 C421.449,263.9025 417.515,265.0225 412.422,265.0225 L395.233,265.0225 C394.369,265.0225 393.674,264.7745 393.153,264.2755 C392.629,263.7775 392.368,263.1225 392.368,262.3075 L392.368,219.8845 C392.368,219.0695 392.629,218.4145 393.153,217.9155 C393.674,217.4185 394.369,217.1695 395.233,217.1695 L411.672,217.1695 C416.629,217.1695 420.472,218.2555 423.2,220.4265 C425.929,222.5995 427.294,225.6765 427.294,229.6575 C427.294,232.2375 426.622,234.4555 425.281,236.3105 C423.939,238.1665 422.063,239.5465 419.653,240.4505 C422.426,241.1755 424.576,242.5325 426.099,244.5235 Z" id="Fill-28" fill="#231F20"></path>
            <path d="M459.9293,240.1803 C463.6573,240.1803 466.4433,239.4103 468.2843,237.8713 C470.1253,236.3333 471.0463,234.0023 471.0463,230.8803 C471.0463,227.8033 470.1373,225.5173 468.3173,224.0253 C466.4983,222.5323 463.7013,221.7843 459.9293,221.7843 L446.1493,221.7843 L446.1493,240.1803 L459.9293,240.1803 Z M477.7993,263.1223 C477.7993,263.8013 477.5363,264.3553 477.0153,264.7853 C476.4913,265.2133 475.8903,265.4293 475.2093,265.4293 C474.1613,265.4293 473.3443,264.9783 472.7513,264.0723 L463.6133,249.6823 C462.4283,247.8273 461.2003,246.5493 459.9293,245.8463 C458.6543,245.1453 456.9273,244.7943 454.7453,244.7943 L446.1493,244.7943 L446.1493,262.5113 C446.1493,263.3713 445.8983,264.0623 445.3993,264.5803 C444.8973,265.1003 444.2393,265.3613 443.4203,265.3613 C442.5563,265.3613 441.8733,265.1003 441.3743,264.5803 C440.8733,264.0623 440.6233,263.3713 440.6233,262.5113 L440.6233,219.8843 C440.6233,219.0703 440.8853,218.4143 441.4083,217.9153 C441.9303,217.4183 442.6243,217.1693 443.4893,217.1693 L460.4063,217.1693 C465.6343,217.1693 469.6253,218.3233 472.3753,220.6313 C475.1293,222.9383 476.5033,226.3313 476.5033,230.8133 C476.5033,234.6143 475.4023,237.6683 473.1963,239.9753 C470.9913,242.2843 467.8403,243.6873 463.7483,244.1833 C464.8853,244.5473 465.9073,245.1353 466.8193,245.9503 C467.7283,246.7633 468.6363,247.8963 469.5453,249.3433 L477.3233,261.5613 C477.6403,262.0593 477.7993,262.5783 477.7993,263.1223 Z" id="Fill-30" fill="#231F20"></path>
            <path d="M500.4528,248.1207 L522.0768,248.1207 L511.2308,223.7527 L500.4528,248.1207 Z M534.0148,262.9867 C534.0148,263.6647 533.7528,264.2307 533.2298,264.6837 C532.7058,265.1347 532.0808,265.3607 531.3538,265.3607 C530.2158,265.3607 529.4208,264.8187 528.9668,263.7317 L524.1228,252.7377 L498.4068,252.7377 L493.4948,263.7317 C493.0408,264.8187 492.2438,265.3607 491.1088,265.3607 C490.3808,265.3607 489.7438,265.1237 489.1978,264.6497 C488.6528,264.1747 488.3788,263.5967 488.3788,262.9187 C488.3788,262.5567 488.4708,262.1937 488.6528,261.8317 L508.1618,218.6617 C508.4338,218.0297 508.8428,217.5547 509.3898,217.2377 C509.9348,216.9217 510.5238,216.7627 511.1628,216.7627 C511.8458,216.7627 512.4598,216.9317 513.0048,217.2707 C513.5508,217.6097 513.9588,218.0747 514.2328,218.6617 L533.7418,261.8317 C533.9228,262.1937 534.0148,262.5787 534.0148,262.9867 Z" id="Fill-32" fill="#231F20"></path>
            <path d="M581.7692,217.61 C582.2232,218.131 582.4522,218.821 582.4522,219.681 L582.4522,262.511 C582.4522,263.372 582.2132,264.062 581.7352,264.581 C581.2582,265.1 580.5862,265.361 579.7232,265.361 C578.8592,265.361 578.1082,264.978 577.4712,264.208 L549.1642,226.537 L549.1642,262.511 C549.1642,263.372 548.9252,264.062 548.4472,264.581 C547.9702,265.1 547.3222,265.361 546.5032,265.361 C545.6842,265.361 545.0462,265.1 544.5932,264.581 C544.1372,264.062 543.9112,263.372 543.9112,262.511 L543.9112,219.681 C543.9112,218.821 544.1502,218.131 544.6272,217.61 C545.1042,217.09 545.7752,216.83 546.6392,216.83 C547.5482,216.83 548.3212,217.215 548.9592,217.985 L577.1992,255.656 L577.1992,219.681 C577.1992,218.821 577.4372,218.131 577.9152,217.61 C578.3922,217.09 579.0402,216.83 579.8592,216.83 C580.6782,216.83 581.3142,217.09 581.7692,217.61" id="Fill-34" fill="#231F20"></path>
            <path d="M610.9323,260.2916 C623.3903,260.2296 629.5883,253.7966 629.5243,240.9906 C629.4593,228.2296 623.1973,221.8796 610.7383,221.9416 L600.5063,221.9936 L600.7013,260.3436 L610.9323,260.2916 Z M595.9113,264.3726 C595.3843,263.8776 595.1203,263.2236 595.1173,262.4086 L594.9023,219.9856 C594.8983,219.1716 595.1553,218.5146 595.6763,218.0126 C596.1973,217.5136 596.8883,217.2616 597.7523,217.2566 L611.0553,217.1896 C618.7393,217.1516 624.6963,219.1916 628.9233,223.3116 C633.1503,227.4306 635.2843,233.3146 635.3223,240.9616 C635.3613,248.6086 633.2773,254.5246 629.0693,258.7086 C624.8613,262.8936 618.9373,265.0036 611.2963,265.0426 L597.9943,265.1086 C597.1303,265.1126 596.4363,264.8686 595.9113,264.3726 Z" id="Fill-36" fill="#231F20"></path>
        </g>
    </g>
</svg>