<?xml version="1.0" encoding="UTF-8"?>
<svg width="69px" height="69px" viewBox="0 0 69 69" version="1.1" xmlns="http://www.w3.org/2000/svg" xmlns:xlink="http://www.w3.org/1999/xlink">
    <!-- Generator: Sketch 48.2 (47327) - http://www.bohemiancoding.com/sketch -->
    <title>other-icon-hov</title>
    <desc>Created with Sketch.</desc>
    <defs></defs>
    <g id="v2" stroke="none" stroke-width="1" fill="none" fill-rule="evenodd" transform="translate(-534.000000, -899.000000)">
        <g id="other-icon-hov" transform="translate(535.000000, 900.000000)">
            <circle id="Oval-2" stroke="#1C2331" cx="33.5" cy="33.5" r="33.5"></circle>
            <circle id="Oval-2" stroke="#1C2331" cx="33.5" cy="33.5" r="25.5"></circle>
            <path d="M33.872,21.992 C35.8560099,21.992 37.4506606,22.562661 38.656,23.704 C39.8613394,24.845339 40.464,26.3759904 40.464,28.296 C40.464,30.7066787 39.7440072,32.4613278 38.304,33.56 C36.8639928,34.6586722 34.8533462,35.2186666 32.272,35.24 L32.272,39.592 L30.896,39.592 L30.896,34.184 L31.664,34.184 C33.8613443,34.184 35.6373266,33.7733374 36.992,32.952 C38.3466734,32.1306626 39.024,30.5786781 39.024,28.296 C39.024,26.7173254 38.5600046,25.4746712 37.632,24.568 C36.7039954,23.6613288 35.440008,23.208 33.84,23.208 C32.1973251,23.208 30.8640051,23.6666621 29.84,24.584 C28.8159949,25.5013379 28.304,26.7066592 28.304,28.2 L26.928,28.2 C26.928,26.941327 27.2266637,25.8426714 27.824,24.904 C28.4213363,23.9653286 29.2479947,23.2453358 30.304,22.744 C31.3600053,22.2426642 32.5493267,21.992 33.872,21.992 Z M32.752,42.792 L32.752,45 L30.48,45 L30.48,42.792 L32.752,42.792 Z" id="?" fill="#1C2331"></path>
        </g>
    </g>
</svg>