<?xml version="1.0" encoding="UTF-8"?>
<svg width="80px" height="60px" viewBox="0 0 80 60" version="1.1" xmlns="http://www.w3.org/2000/svg" xmlns:xlink="http://www.w3.org/1999/xlink">
    <!-- Generator: Sketch 48.2 (47327) - http://www.bohemiancoding.com/sketch -->
    <title>website-icon-hov</title>
    <desc>Created with Sketch.</desc>
    <defs></defs>
    <g id="v2" stroke="none" stroke-width="1" fill="none" fill-rule="evenodd" transform="translate(-280.000000, -905.000000)">
        <g id="website-icon-hov" transform="translate(280.000000, 905.000000)" fill-rule="nonzero">
            <path d="M4.66666667,2.14285714 C3.42857143,2.14285714 2.47619048,3.14285714 2.47619048,4.33333333 C2.47619048,5.57142857 3.47619048,6.52380952 4.66666667,6.52380952 C5.85714286,6.52380952 6.85714286,5.52380952 6.85714286,4.33333333 C6.85714286,3.14285714 5.85714286,2.14285714 4.66666667,2.14285714 Z M4.66666667,5.61904762 C3.95238095,5.61904762 3.38095238,5.04761905 3.38095238,4.33333333 C3.38095238,3.61904762 3.95238095,3.04761905 4.66666667,3.04761905 C5.38095238,3.04761905 5.95238095,3.61904762 5.95238095,4.33333333 C5.95238095,5.04761905 5.38095238,5.61904762 4.66666667,5.61904762 Z" id="Shape" fill="#1C2331"></path>
            <path d="M10,2.14285714 C8.76190476,2.14285714 7.80952381,3.14285714 7.80952381,4.33333333 C7.80952381,5.57142857 8.80952381,6.52380952 10,6.52380952 C11.2380952,6.52380952 12.1904762,5.52380952 12.1904762,4.33333333 C12.1904762,3.14285714 11.1904762,2.14285714 10,2.14285714 Z M10,5.61904762 C9.28571429,5.61904762 8.71428571,5.04761905 8.71428571,4.33333333 C8.71428571,3.61904762 9.28571429,3.04761905 10,3.04761905 C10.7142857,3.04761905 11.2857143,3.61904762 11.2857143,4.33333333 C11.2380952,5.04761905 10.6666667,5.61904762 10,5.61904762 Z" id="Shape" fill="#1C2331"></path>
            <path d="M15.2857143,2.14285714 C14.047619,2.14285714 13.0952381,3.14285714 13.0952381,4.33333333 C13.0952381,5.57142857 14.0952381,6.52380952 15.2857143,6.52380952 C16.4761905,6.52380952 17.4761905,5.52380952 17.4761905,4.33333333 C17.5238095,3.14285714 16.5238095,2.14285714 15.2857143,2.14285714 Z M15.2857143,5.61904762 C14.5714286,5.61904762 14,5.04761905 14,4.33333333 C14,3.61904762 14.5714286,3.04761905 15.2857143,3.04761905 C16,3.04761905 16.5714286,3.61904762 16.5714286,4.33333333 C16.5714286,5.04761905 16,5.61904762 15.2857143,5.61904762 Z" id="Shape" fill="#1C2331"></path>
            <path d="M79.9047619,27.9047619 L79.9047619,8.71428571 L79.9047619,0.142857143 L0.0476190476,0.142857143 L0.0476190476,8.71428571 L0.0476190476,59.8571429 L79.9047619,59.8571429 L79.9047619,28.3333333 C79.9047619,28.2857143 79.952381,28.1904762 79.952381,28.1428571 C79.952381,28.0952381 79.9047619,28 79.9047619,27.9047619 Z M79,58.9047619 L0.952380952,58.9047619 L0.952380952,9.0952381 L78.952381,9.0952381 L78.952381,58.9047619 L79,58.9047619 Z M79,8.14285714 L0.952380952,8.14285714 L0.952380952,1.0952381 L78.952381,1.0952381 L78.952381,8.14285714 L79,8.14285714 Z M0.952380952,17.952381 L78.952381,17.952381 L78.952381,18.952381 L0.952380952,18.952381 L0.952380952,17.952381 Z" id="Combined-Shape" fill="#1C2331"></path>
            <path d="M44.7619048,8.14285714 L43.7619048,8.14285714 L43.7619048,7.47619048 C43.7619048,5.33333333 43.2857143,4.85714286 41.1428571,4.85714286 L24.8571429,4.85714286 C20.8095238,4.85714286 20.8095238,6.85714286 20.8095238,7.47619048 L20.8095238,8.14285714 L19.8095238,8.14285714 L19.8095238,7.47619048 C19.8095238,6.19047619 20.3809524,5.19047619 21.4285714,4.57142857 C22.2857143,4.0952381 23.4285714,3.85714286 24.8571429,3.85714286 L41.1428571,3.85714286 C43.8571429,3.85714286 44.7619048,4.76190476 44.7619048,7.47619048 L44.7619048,8.14285714 Z" id="Shape" fill="#1C2331"></path>
            <path d="M68.2380952,16.0952381 L19.8095238,16.0952381 L19.8095238,11.3333333 L68.2380952,11.3333333 L68.2380952,16.0952381 Z M20.8095238,15.0952381 L67.2380952,15.0952381 L67.2380952,12.3333333 L20.8095238,12.3333333 L20.8095238,15.0952381 Z" id="Shape" fill="#1C2331"></path>
            <rect id="Rectangle-path" fill="#1C2331" x="71.5238095" y="11.3333333" width="5.14285714" height="1"></rect>
            <rect id="Rectangle-path" fill="#1C2331" x="71.5238095" y="15.0952381" width="5.14285714" height="1"></rect>
            <rect id="Rectangle-path" fill="#1C2331" x="71.5238095" y="13.2380952" width="5.14285714" height="1"></rect>
            <polygon id="Shape" fill="#1C2331" points="4.80952381 12.3809524 5.61904762 11.5714286 5 10.952381 2.66666667 13.2380952 5 15.5714286 5.61904762 14.7142857 4.85714286 13.8095238 8.04761905 13.8095238 8.04761905 13.5238095 8.04761905 13 8.04761905 12.3809524"></polygon>
            <polygon id="Shape" fill="#1C2331" points="13.9047619 10.952381 13.2857143 11.5714286 14.047619 12.3809524 10.8095238 12.3809524 10.8095238 13 10.8095238 13.5238095 10.8095238 13.8095238 14.047619 13.8095238 13.2857143 14.7142857 13.9047619 15.4761905 16.1904762 13.1904762"></polygon>
            <polygon id="Shape" points="6.14285714 48.047619 24.952381 48.047619 24.952381 36.8095238 6.14285714 36.8095238"></polygon>
            <path d="M6.14285714,48.047619 L24.952381,48.047619 L24.952381,36.8095238 L6.14285714,36.8095238 L6.14285714,48.047619 Z M7.14285714,37.7619048 L24,37.7619048 L24,47.1428571 L7.14285714,47.1428571 L7.14285714,37.7619048 Z" id="Shape" fill="#1C2331"></path>
            <polygon id="Shape" points="31.1428571 48.047619 48.952381 48.047619 48.952381 36.8095238 31.1428571 36.8095238"></polygon>
            <polygon id="Shape" points="55.1428571 48.047619 72.952381 48.047619 72.952381 36.8095238 55.1428571 36.8095238"></polygon>
            <path d="M30.6190476,48.047619 L49.4285714,48.047619 L49.4285714,36.8095238 L30.6190476,36.8095238 L30.6190476,48.047619 Z M31.5238095,37.7619048 L48.4761905,37.7619048 L48.4761905,47.1428571 L31.5238095,47.1428571 L31.5238095,37.7619048 Z" id="Shape" fill="#1C2331"></path>
            <path d="M54.5714286,48.047619 L73.3333333,48.047619 L73.3333333,36.8095238 L54.5238095,36.8095238 L54.5238095,48.047619 L54.5714286,48.047619 Z M55.4761905,37.7619048 L72.4285714,37.7619048 L72.4285714,47.1428571 L55.4761905,47.1428571 L55.4761905,37.7619048 Z" id="Shape" fill="#1C2331"></path>
            <path d="M63.5714286,31.1904762 L15.047619,31.1904762 L15.047619,26.4285714 L63.5714286,26.4285714 L63.5714286,31.1904762 Z M16.047619,30.1904762 L62.5714286,30.1904762 L62.5714286,27.4285714 L16.047619,27.4285714 L16.047619,30.1904762 Z" id="Shape" fill="#1C2331"></path>
        </g>
    </g>
</svg>